<svg xmlns="http://www.w3.org/2000/svg" viewBox="0 0 400 520"><defs><linearGradient id="g" x1="0" y1="0" x2="1" y2="1"><stop stop-color="#897bb0"/><stop offset="1" stop-color="#252638"/></linearGradient><filter id="n"><feTurbulence baseFrequency=".7" numOctaves="2" result="n"/><feBlend in="SourceGraphic" in2="n" mode="soft-light"/></filter></defs><rect width="400" height="520" rx="24" fill="url(#g)"/><rect x="20" y="20" width="360" height="480" rx="15" fill="none" stroke="#fff4db" stroke-opacity=".55"/><g fill="none" stroke="#fff4db" stroke-width="5" stroke-linecap="round" stroke-linejoin="round" opacity=".84"><path d="M45 110c80 55 230 55 310 0M70 130v30m45-8v30m45-14v30m45-16v30m45-17v30m45-16v30m45-25v30"/><circle cx="70" cy="166" r="9"/><circle cx="115" cy="188" r="9"/><circle cx="160" cy="204" r="9"/><circle cx="205" cy="218" r="9"/><circle cx="250" cy="211" r="9"/><circle cx="295" cy="195" r="9"/><circle cx="340" cy="180" r="9"/></g><text x="40" y="48" fill="#fff4db" font-family="Georgia,serif" font-size="16">CHAPTER 10</text><text x="40" y="392" fill="#fff4db" font-family="Georgia,serif" font-size="15" letter-spacing="2">11.27  SINGAPORE</text><text x="40" y="430" fill="#fff4db" font-family="Georgia,serif" font-size="19" letter-spacing="1">CHRISTMAS WITHOUT SNOW</text><path d="M40 455h190" stroke="#fff4db" stroke-opacity=".5"/><text x="40" y="482" fill="#fff4db" opacity=".72" font-family="sans-serif" font-size="11" letter-spacing="3">SHMILY · OUR STORY</text></svg>