<svg xmlns="http://www.w3.org/2000/svg" viewBox="0 0 400 520"><defs><linearGradient id="g" x1="0" y1="0" x2="1" y2="1"><stop stop-color="#c99b85"/><stop offset="1" stop-color="#252638"/></linearGradient><filter id="n"><feTurbulence baseFrequency=".7" numOctaves="2" result="n"/><feBlend in="SourceGraphic" in2="n" mode="soft-light"/></filter></defs><rect width="400" height="520" rx="24" fill="url(#g)"/><rect x="20" y="20" width="360" height="480" rx="15" fill="none" stroke="#fff4db" stroke-opacity=".55"/><g fill="none" stroke="#fff4db" stroke-width="5" stroke-linecap="round" stroke-linejoin="round" opacity=".84"><path d="M125 250c0-78 34-120 75-120s75 42 75 120c0 45-35 70-75 70s-75-25-75-70zM145 155l-12-64 55 42m67 22 12-64-55 42M168 220h1m62 0h1m-48 32c11 8 21 8 32 0"/></g><text x="40" y="48" fill="#fff4db" font-family="Georgia,serif" font-size="16">CHAPTER 11</text><text x="40" y="392" fill="#fff4db" font-family="Georgia,serif" font-size="15" letter-spacing="2">01.09  BEIJING</text><text x="40" y="430" fill="#fff4db" font-family="Georgia,serif" font-size="19" letter-spacing="1">HOME, WITH NATURE</text><path d="M40 455h190" stroke="#fff4db" stroke-opacity=".5"/><text x="40" y="482" fill="#fff4db" opacity=".72" font-family="sans-serif" font-size="11" letter-spacing="3">SHMILY · OUR STORY</text></svg>